


Release info:

General
Format                                   : Matroska
Format version                           : Version 2
File size                                : 690 MiB
Duration                                 : 2h 9mn
Overall bit rate mode                    : Variable
Overall bit rate                         : 746 Kbps
Movie name                               : Bojhena Se Bojhena 2012 SCAMRip V2 [FULL] Bengali Movie

Video
ID                                       : 1
Format                                   : MPEG-4 Visual
Format profile                           : Advanced Simple@L5
Format settings, BVOP                    : Yes
Format settings, QPel                    : No
Format settings, GMC                     : No warppoints
Format settings, Matrix                  : Custom
Codec ID                                 : V_MS/VFW/FOURCC / XVID
Codec ID/Hint                            : XviD
Duration                                 : 2h 9mn
Bit rate                                 : 617 Kbps
Width                                    : 592 pixels
Height                                   : 304 pixels
Display aspect ratio                     : 1.947
Frame rate mode                          : Constant
Frame rate                               : 23.976 fps
Color space                              : YUV
Chroma subsampling                       : 4:2:0
Bit depth                                : 8 bits
Scan type                                : Progressive
Compression mode                         : Lossy
Bits/(Pixel*Frame)                       : 0.143
Stream size                              : 571 MiB (83%)
Title                                    : Bojhena Se Bojhena 2012 SCAMRip V2 [FULL] Bengali Movie
Language                                 : Bengali
Default                                  : Yes
Forced                                   : No

Audio
ID                                       : 2
Format                                   : MPEG Audio
Format version                           : Version 1
Format profile                           : Layer 3
Mode                                     : Joint stereo
Mode extension                           : MS Stereo
Muxing mode                              : Header stripping
Codec ID                                 : A_MPEG/L3
Codec ID/Hint                            : MP3
Duration                                 : 2h 9mn
Bit rate mode                            : Variable
Bit rate                                 : 114 Kbps
Nominal bit rate                         : 128 Kbps
Channel(s)                               : 2 channels
Sampling rate                            : 48.0 KHz
Compression mode                         : Lossy
Stream size                              : 106 MiB (15%)
Title                                    : Bojhena Se Bojhena 2012 SCAMRip V2 [FULL] Bengali Movie
Language                                 : Bengali
Default                                  : Yes
Forced                                   : No



Source:
credit to original movie ripper Hancock (Thanks)

Movie Info:

Payel plays a naive village girl from Balurghat who arrives in Kolkata for a job interview, but her sister is unable to meet her to direct her to her destination. She seeks the help of a stranger played by Abir, who agrees to take her as far as the bus stop. However, he ends up reluctantly travelling with her the entire day, waiting for her during her interview, and finally dropping her at her sister's home in the evening.


A parallel story follows.a metal shop worker, played by Soham, who harbours feelings towards his neighbor,a nurse, portrayed by Mimi. Being shy and soft-spoken, he doesn't talk to her, but continues to watch her every morning for six months. She, however, is bold and forthcoming and puts him through several tests.

Cast & Crew :

Producer : Shree Venkatesh Films

Director : Raj Chakraborty

Star Cast :

Soham Chakraborty

Payel Sarkar

Abir Chattopadhyay

Mimi Chakraborty

Note: This is the Full Movie with Ending..The previous release had the ending missing

Screen Shot:
 
http://www.shotpix.com/images/76342737703880723348.png 
http://www.shotpix.com/images/59958164996443179904.png 
http://www.shotpix.com/images/64566295565901073613.png 
http://www.shotpix.com/images/40029166800502738587.png 
http://www.shotpix.com/images/46113905990048388466.png 
http://www.shotpix.com/images/59220642234883891602.png